# xmcd
# Copyright (C) 1995-1998 Ti Kan
#
# Track frame offsets:
#       150
#       14458
#       27319
#
# Disc length: 552 seconds
#
# Revision: 0
# Processed by: cddbd v1.5.2PL0 Copyright (c) Steve Scherf et al.
# Submitted via: CD-Transfer v1.0
#
DISCID=1b022603
DTITLE=Günter W. - 
DYEAR=08
DGENRE=
TTITLE0=Wie Sag Ich Dir Dass Ich Dich Mag
TTITLE1=Die Sonne Der Nacht
TTITLE2=Voglio Sempre Ti
EXTD=
EXTT0=
EXTT1=
EXTT2=
PLAYORDER=
